<mxfile host="app.diagrams.net" modified="2024-05-17T10:06:58.789Z" agent="Mozilla/5.0 (Windows NT 10.0; Win64; x64) AppleWebKit/537.36 (KHTML, like Gecko) Chrome/124.0.0.0 Safari/537.36" etag="W8Pi055gqk4HSs_u8nFg" version="24.4.3" type="device">
  <diagram name="Side-1" id="lMKfIqTXkO96O7YE7r3o">
    <mxGraphModel dx="644" dy="591" grid="1" gridSize="10" guides="1" tooltips="1" connect="1" arrows="1" fold="1" page="1" pageScale="1" pageWidth="827" pageHeight="1169" math="0" shadow="0">
      <root>
        <mxCell id="0" />
        <mxCell id="1" parent="0" />
        <mxCell id="NNk8S8M2l-ehOu8BPUui-1" value="Full RTU Container" style="whiteSpace=wrap;html=1;aspect=fixed;" vertex="1" parent="1">
          <mxGeometry x="330" y="350" width="80" height="80" as="geometry" />
        </mxCell>
        <mxCell id="NNk8S8M2l-ehOu8BPUui-2" value="Line of 10 Syringes" style="whiteSpace=wrap;html=1;aspect=fixed;" vertex="1" parent="1">
          <mxGeometry x="1360" y="300" width="80" height="80" as="geometry" />
        </mxCell>
        <mxCell id="NNk8S8M2l-ehOu8BPUui-3" value="Full Nest" style="whiteSpace=wrap;html=1;aspect=fixed;rounded=0;" vertex="1" parent="1">
          <mxGeometry x="786" y="370" width="80" height="80" as="geometry" />
        </mxCell>
        <mxCell id="NNk8S8M2l-ehOu8BPUui-4" value="Tub Carrier&amp;nbsp;&lt;div&gt;depends&amp;nbsp;&lt;span style=&quot;background-color: initial;&quot;&gt;on weight of full RTU tub&lt;/span&gt;&lt;div&gt;Req: H.1.1&lt;/div&gt;&lt;/div&gt;" style="ellipse;whiteSpace=wrap;html=1;fillColor=#FF6666;opacity=75;" vertex="1" parent="1">
          <mxGeometry x="240" y="170" width="120" height="80" as="geometry" />
        </mxCell>
        <mxCell id="NNk8S8M2l-ehOu8BPUui-5" value="" style="rounded=0;whiteSpace=wrap;html=1;dashed=1;movable=1;resizable=1;rotatable=1;deletable=1;editable=1;locked=0;connectable=1;" vertex="1" parent="1">
          <mxGeometry x="30" y="20" width="660" height="60" as="geometry" />
        </mxCell>
        <mxCell id="NNk8S8M2l-ehOu8BPUui-6" value="Tub carrier" style="ellipse;whiteSpace=wrap;html=1;fillColor=#FF6666;strokeColor=#b85450;opacity=75;" vertex="1" parent="1">
          <mxGeometry x="40" y="30" width="70" height="40" as="geometry" />
        </mxCell>
        <mxCell id="NNk8S8M2l-ehOu8BPUui-7" value="Nest carrier" style="ellipse;whiteSpace=wrap;html=1;fillColor=#FFFF66;strokeColor=#82b366;opacity=50;" vertex="1" parent="1">
          <mxGeometry x="120" y="30" width="70" height="40" as="geometry" />
        </mxCell>
        <mxCell id="NNk8S8M2l-ehOu8BPUui-8" value="Syringe carrier" style="ellipse;whiteSpace=wrap;html=1;fillColor=#66FF66;strokeColor=#9673a6;opacity=50;" vertex="1" parent="1">
          <mxGeometry x="200" y="30" width="70" height="40" as="geometry" />
        </mxCell>
        <mxCell id="NNk8S8M2l-ehOu8BPUui-9" value="De-/Re-nester" style="ellipse;whiteSpace=wrap;html=1;fillColor=#BF8481;strokeColor=#F2F2F2;opacity=60;" vertex="1" parent="1">
          <mxGeometry x="360" y="30" width="70" height="40" as="geometry" />
        </mxCell>
        <mxCell id="NNk8S8M2l-ehOu8BPUui-10" value="Filling" style="ellipse;whiteSpace=wrap;html=1;fillColor=#FFCC99;strokeColor=#d6b656;" vertex="1" parent="1">
          <mxGeometry x="440" y="30" width="70" height="40" as="geometry" />
        </mxCell>
        <mxCell id="NNk8S8M2l-ehOu8BPUui-11" value="Inspection" style="ellipse;whiteSpace=wrap;html=1;fillColor=#FFCCE6;strokeColor=#6c8ebf;" vertex="1" parent="1">
          <mxGeometry x="520" y="30" width="70" height="40" as="geometry" />
        </mxCell>
        <mxCell id="NNk8S8M2l-ehOu8BPUui-12" value="De-/Re-tubbing" style="ellipse;whiteSpace=wrap;html=1;fillColor=#A9C4EB;strokeColor=#23445d;opacity=55;" vertex="1" parent="1">
          <mxGeometry x="280" y="30" width="70" height="40" as="geometry" />
        </mxCell>
        <mxCell id="NNk8S8M2l-ehOu8BPUui-13" value="Capping" style="ellipse;whiteSpace=wrap;html=1;fillColor=#CCCCCC;strokeColor=#36393d;" vertex="1" parent="1">
          <mxGeometry x="600" y="30" width="70" height="40" as="geometry" />
        </mxCell>
        <mxCell id="NNk8S8M2l-ehOu8BPUui-14" value="Tub Carrier&amp;nbsp;&lt;div&gt;requires x- and&amp;nbsp;&lt;/div&gt;&lt;div&gt;y-axis motion&lt;div&gt;Req: H.1.2&lt;/div&gt;&lt;/div&gt;" style="ellipse;whiteSpace=wrap;html=1;fillColor=#FF6666;opacity=75;" vertex="1" parent="1">
          <mxGeometry x="140" y="270" width="120" height="80" as="geometry" />
        </mxCell>
        <mxCell id="NNk8S8M2l-ehOu8BPUui-16" value="Tub Carrier&amp;nbsp;&lt;div&gt;can&amp;nbsp;&lt;span style=&quot;background-color: initial;&quot;&gt;only grip the&lt;/span&gt;&lt;/div&gt;&lt;div&gt;&lt;span style=&quot;background-color: initial;&quot;&gt;&amp;nbsp;tub&amp;nbsp;&lt;/span&gt;&lt;span style=&quot;background-color: initial;&quot;&gt;from the&amp;nbsp;&lt;/span&gt;&lt;/div&gt;&lt;div&gt;&lt;span style=&quot;background-color: initial;&quot;&gt;bottom or edges.&lt;/span&gt;&lt;div&gt;H.1.3&lt;/div&gt;&lt;/div&gt;" style="ellipse;whiteSpace=wrap;html=1;fillColor=#FF6666;opacity=75;" vertex="1" parent="1">
          <mxGeometry x="80" y="390" width="120" height="80" as="geometry" />
        </mxCell>
        <mxCell id="NNk8S8M2l-ehOu8BPUui-18" value="Nest Carrier&amp;nbsp;&lt;div&gt;depends on weight&amp;nbsp;&lt;/div&gt;&lt;div&gt;or full&amp;nbsp;&lt;span style=&quot;background-color: initial;&quot;&gt;nest&lt;/span&gt;&lt;/div&gt;&lt;div&gt;&lt;span style=&quot;background-color: initial;&quot;&gt;Req: H.2.1&lt;/span&gt;&lt;/div&gt;" style="ellipse;whiteSpace=wrap;html=1;fillColor=#FFFF66;opacity=50;" vertex="1" parent="1">
          <mxGeometry x="928" y="240" width="120" height="80" as="geometry" />
        </mxCell>
        <mxCell id="NNk8S8M2l-ehOu8BPUui-19" value="Nest Carrier&amp;nbsp;&lt;div&gt;requires x- and&amp;nbsp;&lt;/div&gt;&lt;div&gt;y-axis motion&lt;div&gt;Req: H.2.2&lt;/div&gt;&lt;/div&gt;" style="ellipse;whiteSpace=wrap;html=1;fillColor=#FFFF66;opacity=50;" vertex="1" parent="1">
          <mxGeometry x="956" y="380" width="120" height="80" as="geometry" />
        </mxCell>
        <mxCell id="NNk8S8M2l-ehOu8BPUui-21" value="&lt;div&gt;&lt;br&gt;&lt;/div&gt;Syringe Carrier depends on the weight of 10&amp;nbsp;&lt;span style=&quot;background-color: initial; font-size: 12px;&quot;&gt;syringes&lt;/span&gt;&lt;div style=&quot;font-size: 12px;&quot;&gt;Req: H.3.1&lt;br style=&quot;font-size: 12px;&quot;&gt;&lt;div style=&quot;font-size: 12px;&quot;&gt;&lt;br style=&quot;font-size: 12px;&quot;&gt;&lt;/div&gt;&lt;/div&gt;" style="ellipse;whiteSpace=wrap;html=1;fontSize=12;verticalAlign=middle;fillColor=#66FF66;opacity=50;" vertex="1" parent="1">
          <mxGeometry x="1560" y="240" width="120" height="80" as="geometry" />
        </mxCell>
        <mxCell id="NNk8S8M2l-ehOu8BPUui-22" value="Syringe Carrier requires x- and y-axis motion&lt;div&gt;Req: H.3.2&lt;/div&gt;" style="ellipse;whiteSpace=wrap;html=1;fillColor=#66FF66;opacity=50;" vertex="1" parent="1">
          <mxGeometry x="1576" y="370" width="120" height="80" as="geometry" />
        </mxCell>
        <mxCell id="NNk8S8M2l-ehOu8BPUui-23" value="Syringes must&amp;nbsp;&lt;div&gt;be accessible to&amp;nbsp;&lt;/div&gt;&lt;div&gt;other processes&amp;nbsp;&lt;/div&gt;&lt;div&gt;within the carrier&lt;div&gt;&lt;span style=&quot;background-color: initial;&quot;&gt;Req: H.3.3&amp;nbsp;&lt;/span&gt;&lt;/div&gt;&lt;/div&gt;" style="ellipse;whiteSpace=wrap;html=1;fillColor=#66FF66;opacity=50;" vertex="1" parent="1">
          <mxGeometry x="1536" y="510" width="130" height="90" as="geometry" />
        </mxCell>
        <mxCell id="NNk8S8M2l-ehOu8BPUui-28" value="De/Re-tubbing depends on the weight of the full nest&lt;br&gt;Req: 1.1" style="ellipse;whiteSpace=wrap;html=1;fillColor=#A9C4EB;opacity=55;" vertex="1" parent="1">
          <mxGeometry x="490" y="170" width="120" height="80" as="geometry" />
        </mxCell>
        <mxCell id="NNk8S8M2l-ehOu8BPUui-29" value="De/Re-tubbing requires x-, y-, and z-axis motion&lt;div&gt;Req: 1.2&lt;/div&gt;" style="ellipse;whiteSpace=wrap;html=1;fillColor=#A9C4EB;opacity=55;" vertex="1" parent="1">
          <mxGeometry x="560" y="300" width="120" height="80" as="geometry" />
        </mxCell>
        <mxCell id="NNk8S8M2l-ehOu8BPUui-30" value="De/Re-tubbing&amp;nbsp;&lt;div&gt;requires&amp;nbsp;&lt;span style=&quot;background-color: initial;&quot;&gt;z-axis motion&amp;nbsp;&lt;/span&gt;&lt;/div&gt;&lt;div&gt;&lt;span style=&quot;background-color: initial;&quot;&gt;such that there is clearance between syringes and tub&lt;/span&gt;&lt;div&gt;&lt;div&gt;&lt;div&gt;&lt;div&gt;&lt;div&gt;Req: 1.4&lt;/div&gt;&lt;/div&gt;&lt;/div&gt;&lt;/div&gt;&lt;/div&gt;&lt;/div&gt;" style="ellipse;whiteSpace=wrap;html=1;fillColor=#A9C4EB;opacity=55;" vertex="1" parent="1">
          <mxGeometry x="460" y="570" width="150" height="100" as="geometry" />
        </mxCell>
        <mxCell id="NNk8S8M2l-ehOu8BPUui-34" value="De/Re-tubbing&lt;div&gt;&amp;nbsp;must be able to reach into the tub&lt;div&gt;Req:1.3&lt;/div&gt;&lt;/div&gt;" style="ellipse;whiteSpace=wrap;html=1;fillColor=#A9C4EB;verticalAlign=middle;horizontal=1;align=center;opacity=55;" vertex="1" parent="1">
          <mxGeometry x="560" y="460" width="120" height="80" as="geometry" />
        </mxCell>
        <mxCell id="NNk8S8M2l-ehOu8BPUui-39" value="De/Re-nesting&amp;nbsp;&lt;div&gt;depends on the weight of 10 syringes.&lt;div&gt;Req: 2.1&lt;/div&gt;&lt;/div&gt;" style="ellipse;whiteSpace=wrap;html=1;fillColor=#BF8481;strokeColor=#F2F2F2;opacity=60;" vertex="1" parent="1">
          <mxGeometry x="1152.5" y="280" width="130" height="75" as="geometry" />
        </mxCell>
        <mxCell id="NNk8S8M2l-ehOu8BPUui-40" value="De/Re-nesting&amp;nbsp;&lt;div&gt;requires at least&amp;nbsp;&lt;/div&gt;&lt;div&gt;82 mm of&amp;nbsp;&lt;span style=&quot;background-color: initial;&quot;&gt;z-axis motion&amp;nbsp;&lt;/span&gt;&lt;div&gt;Req: H.2.3&lt;/div&gt;&lt;/div&gt;" style="ellipse;whiteSpace=wrap;html=1;align=center;verticalAlign=top;fillColor=#BF8481;strokeColor=#F2F2F2;opacity=60;" vertex="1" parent="1">
          <mxGeometry x="1000" y="570" width="130" height="80" as="geometry" />
        </mxCell>
        <mxCell id="NNk8S8M2l-ehOu8BPUui-41" value="De/Re-nesting&amp;nbsp;&lt;div&gt;requires x-, y- and z-axis motion&lt;div&gt;Req:2.2&lt;/div&gt;&lt;/div&gt;" style="ellipse;whiteSpace=wrap;html=1;fillColor=#BF8481;strokeColor=#F2F2F2;opacity=60;" vertex="1" parent="1">
          <mxGeometry x="1150" y="440" width="132.5" height="80" as="geometry" />
        </mxCell>
        <mxCell id="NNk8S8M2l-ehOu8BPUui-52" value="" style="endArrow=classic;html=1;rounded=0;entryX=1;entryY=0.5;entryDx=0;entryDy=0;exitX=0.5;exitY=1;exitDx=0;exitDy=0;curved=1;" edge="1" parent="1" source="NNk8S8M2l-ehOu8BPUui-3" target="NNk8S8M2l-ehOu8BPUui-30">
          <mxGeometry width="50" height="50" relative="1" as="geometry">
            <mxPoint x="720" y="550" as="sourcePoint" />
            <mxPoint x="770" y="500" as="targetPoint" />
            <Array as="points">
              <mxPoint x="740" y="580" />
            </Array>
          </mxGeometry>
        </mxCell>
        <mxCell id="NNk8S8M2l-ehOu8BPUui-53" value="" style="endArrow=classic;html=1;rounded=0;entryX=1.007;entryY=0.592;entryDx=0;entryDy=0;entryPerimeter=0;exitX=0;exitY=0.5;exitDx=0;exitDy=0;curved=1;" edge="1" parent="1" source="NNk8S8M2l-ehOu8BPUui-3" target="NNk8S8M2l-ehOu8BPUui-29">
          <mxGeometry width="50" height="50" relative="1" as="geometry">
            <mxPoint x="700" y="390" as="sourcePoint" />
            <mxPoint x="750" y="340" as="targetPoint" />
            <Array as="points">
              <mxPoint x="720" y="390" />
            </Array>
          </mxGeometry>
        </mxCell>
        <mxCell id="NNk8S8M2l-ehOu8BPUui-54" value="" style="endArrow=classic;html=1;rounded=0;exitX=0.5;exitY=0;exitDx=0;exitDy=0;entryX=1;entryY=0.5;entryDx=0;entryDy=0;curved=1;" edge="1" parent="1" source="NNk8S8M2l-ehOu8BPUui-3" target="NNk8S8M2l-ehOu8BPUui-28">
          <mxGeometry width="50" height="50" relative="1" as="geometry">
            <mxPoint x="750" y="270" as="sourcePoint" />
            <mxPoint x="800" y="220" as="targetPoint" />
            <Array as="points">
              <mxPoint x="750" y="240" />
            </Array>
          </mxGeometry>
        </mxCell>
        <mxCell id="NNk8S8M2l-ehOu8BPUui-55" value="" style="endArrow=classic;html=1;rounded=0;entryX=0.192;entryY=0.078;entryDx=0;entryDy=0;entryPerimeter=0;exitX=1;exitY=0.5;exitDx=0;exitDy=0;curved=1;" edge="1" parent="1" source="NNk8S8M2l-ehOu8BPUui-1" target="NNk8S8M2l-ehOu8BPUui-30">
          <mxGeometry width="50" height="50" relative="1" as="geometry">
            <mxPoint x="389" y="490" as="sourcePoint" />
            <mxPoint x="439" y="440" as="targetPoint" />
            <Array as="points">
              <mxPoint x="470" y="480" />
            </Array>
          </mxGeometry>
        </mxCell>
        <mxCell id="NNk8S8M2l-ehOu8BPUui-56" value="" style="endArrow=classic;html=1;rounded=0;entryX=0.04;entryY=0.353;entryDx=0;entryDy=0;entryPerimeter=0;exitX=1;exitY=0.5;exitDx=0;exitDy=0;curved=1;" edge="1" parent="1" source="NNk8S8M2l-ehOu8BPUui-1" target="NNk8S8M2l-ehOu8BPUui-34">
          <mxGeometry width="50" height="50" relative="1" as="geometry">
            <mxPoint x="430" y="455" as="sourcePoint" />
            <mxPoint x="480" y="405" as="targetPoint" />
            <Array as="points">
              <mxPoint x="480" y="460" />
            </Array>
          </mxGeometry>
        </mxCell>
        <mxCell id="NNk8S8M2l-ehOu8BPUui-59" value="" style="endArrow=classic;html=1;rounded=0;exitX=0.5;exitY=0;exitDx=0;exitDy=0;entryX=1;entryY=1;entryDx=0;entryDy=0;curved=1;" edge="1" parent="1" source="NNk8S8M2l-ehOu8BPUui-1" target="NNk8S8M2l-ehOu8BPUui-4">
          <mxGeometry width="50" height="50" relative="1" as="geometry">
            <mxPoint x="360" y="285" as="sourcePoint" />
            <mxPoint x="410" y="235" as="targetPoint" />
            <Array as="points">
              <mxPoint x="370" y="300" />
            </Array>
          </mxGeometry>
        </mxCell>
        <mxCell id="NNk8S8M2l-ehOu8BPUui-60" value="" style="endArrow=classic;html=1;rounded=0;exitX=0;exitY=0.5;exitDx=0;exitDy=0;entryX=1;entryY=0.5;entryDx=0;entryDy=0;curved=1;" edge="1" parent="1" source="NNk8S8M2l-ehOu8BPUui-1" target="NNk8S8M2l-ehOu8BPUui-16">
          <mxGeometry width="50" height="50" relative="1" as="geometry">
            <mxPoint x="360" y="510" as="sourcePoint" />
            <mxPoint x="410" y="460" as="targetPoint" />
            <Array as="points">
              <mxPoint x="260" y="400" />
            </Array>
          </mxGeometry>
        </mxCell>
        <mxCell id="NNk8S8M2l-ehOu8BPUui-62" value="" style="endArrow=classic;html=1;rounded=0;entryX=0.04;entryY=0.722;entryDx=0;entryDy=0;entryPerimeter=0;exitX=0.5;exitY=0;exitDx=0;exitDy=0;curved=1;" edge="1" parent="1" source="NNk8S8M2l-ehOu8BPUui-3" target="NNk8S8M2l-ehOu8BPUui-18">
          <mxGeometry width="50" height="50" relative="1" as="geometry">
            <mxPoint x="870" y="360" as="sourcePoint" />
            <mxPoint x="920" y="310" as="targetPoint" />
            <Array as="points">
              <mxPoint x="870" y="310" />
            </Array>
          </mxGeometry>
        </mxCell>
        <mxCell id="NNk8S8M2l-ehOu8BPUui-64" value="" style="endArrow=classic;html=1;rounded=0;entryX=0.317;entryY=0.017;entryDx=0;entryDy=0;entryPerimeter=0;exitX=0;exitY=0.5;exitDx=0;exitDy=0;curved=1;" edge="1" parent="1" source="NNk8S8M2l-ehOu8BPUui-41" target="NNk8S8M2l-ehOu8BPUui-40">
          <mxGeometry width="50" height="50" relative="1" as="geometry">
            <mxPoint x="900" y="400" as="sourcePoint" />
            <mxPoint x="950" y="350" as="targetPoint" />
            <Array as="points">
              <mxPoint x="1050" y="510" />
            </Array>
          </mxGeometry>
        </mxCell>
        <mxCell id="NNk8S8M2l-ehOu8BPUui-69" value="" style="endArrow=classic;html=1;rounded=0;entryX=1;entryY=0.5;entryDx=0;entryDy=0;exitX=0;exitY=0.5;exitDx=0;exitDy=0;curved=1;" edge="1" parent="1" source="NNk8S8M2l-ehOu8BPUui-2" target="NNk8S8M2l-ehOu8BPUui-39">
          <mxGeometry width="50" height="50" relative="1" as="geometry">
            <mxPoint x="1300" y="360" as="sourcePoint" />
            <mxPoint x="1350" y="310" as="targetPoint" />
            <Array as="points">
              <mxPoint x="1340" y="310" />
            </Array>
          </mxGeometry>
        </mxCell>
        <mxCell id="NNk8S8M2l-ehOu8BPUui-72" value="" style="endArrow=classic;html=1;rounded=0;entryX=0.02;entryY=0.683;entryDx=0;entryDy=0;entryPerimeter=0;exitX=1;exitY=0.5;exitDx=0;exitDy=0;curved=1;" edge="1" parent="1" source="NNk8S8M2l-ehOu8BPUui-2" target="NNk8S8M2l-ehOu8BPUui-21">
          <mxGeometry width="50" height="50" relative="1" as="geometry">
            <mxPoint x="1440" y="410" as="sourcePoint" />
            <mxPoint x="1570" y="360" as="targetPoint" />
            <Array as="points">
              <mxPoint x="1500" y="350" />
            </Array>
          </mxGeometry>
        </mxCell>
        <mxCell id="NNk8S8M2l-ehOu8BPUui-74" value="Filling requires x-, y- and z-axis motion&lt;div&gt;Req: 3.1&lt;/div&gt;" style="ellipse;whiteSpace=wrap;html=1;fillColor=#FFCC99;" vertex="1" parent="1">
          <mxGeometry x="1800" y="470" width="120" height="80" as="geometry" />
        </mxCell>
        <mxCell id="NNk8S8M2l-ehOu8BPUui-75" value="" style="endArrow=classic;html=1;rounded=0;entryX=0.5;entryY=0;entryDx=0;entryDy=0;exitX=1;exitY=0.5;exitDx=0;exitDy=0;curved=1;" edge="1" parent="1" source="NNk8S8M2l-ehOu8BPUui-22" target="NNk8S8M2l-ehOu8BPUui-74">
          <mxGeometry width="50" height="50" relative="1" as="geometry">
            <mxPoint x="1720" y="480" as="sourcePoint" />
            <mxPoint x="1770" y="430" as="targetPoint" />
            <Array as="points">
              <mxPoint x="1800" y="400" />
            </Array>
          </mxGeometry>
        </mxCell>
        <mxCell id="NNk8S8M2l-ehOu8BPUui-76" value="Weighing module requires x-, y- and z-axis motion&lt;div&gt;Req:4.1&lt;/div&gt;" style="ellipse;whiteSpace=wrap;html=1;fillColor=#FFCCE6;" vertex="1" parent="1">
          <mxGeometry x="1416" y="650" width="120" height="80" as="geometry" />
        </mxCell>
        <mxCell id="NNk8S8M2l-ehOu8BPUui-77" value="Visual Inspection requires x- and y-axis motion&lt;div&gt;Req: 5.1&lt;/div&gt;" style="ellipse;whiteSpace=wrap;html=1;fillColor=#FFCCE6;" vertex="1" parent="1">
          <mxGeometry x="1620" y="650" width="120" height="80" as="geometry" />
        </mxCell>
        <mxCell id="NNk8S8M2l-ehOu8BPUui-78" value="" style="endArrow=classic;html=1;rounded=0;entryX=0.5;entryY=0;entryDx=0;entryDy=0;exitX=0;exitY=1;exitDx=0;exitDy=0;curved=1;" edge="1" parent="1" source="NNk8S8M2l-ehOu8BPUui-22" target="NNk8S8M2l-ehOu8BPUui-76">
          <mxGeometry width="50" height="50" relative="1" as="geometry">
            <mxPoint x="1440" y="550" as="sourcePoint" />
            <mxPoint x="1490" y="500" as="targetPoint" />
            <Array as="points">
              <mxPoint x="1470" y="520" />
            </Array>
          </mxGeometry>
        </mxCell>
        <mxCell id="NNk8S8M2l-ehOu8BPUui-79" value="" style="endArrow=classic;html=1;rounded=0;entryX=1;entryY=0.5;entryDx=0;entryDy=0;exitX=0.5;exitY=1;exitDx=0;exitDy=0;curved=1;" edge="1" parent="1" source="NNk8S8M2l-ehOu8BPUui-23" target="NNk8S8M2l-ehOu8BPUui-76">
          <mxGeometry width="50" height="50" relative="1" as="geometry">
            <mxPoint x="1540" y="670" as="sourcePoint" />
            <mxPoint x="1590" y="620" as="targetPoint" />
            <Array as="points">
              <mxPoint x="1590" y="660" />
            </Array>
          </mxGeometry>
        </mxCell>
        <mxCell id="NNk8S8M2l-ehOu8BPUui-80" value="" style="endArrow=classic;html=1;rounded=0;entryX=0.5;entryY=0;entryDx=0;entryDy=0;exitX=1;exitY=1;exitDx=0;exitDy=0;curved=1;" edge="1" parent="1" source="NNk8S8M2l-ehOu8BPUui-22" target="NNk8S8M2l-ehOu8BPUui-77">
          <mxGeometry width="50" height="50" relative="1" as="geometry">
            <mxPoint x="1690" y="520" as="sourcePoint" />
            <mxPoint x="1740" y="470" as="targetPoint" />
            <Array as="points">
              <mxPoint x="1730" y="550" />
            </Array>
          </mxGeometry>
        </mxCell>
        <mxCell id="NNk8S8M2l-ehOu8BPUui-81" value="" style="endArrow=classic;html=1;rounded=0;entryX=0.307;entryY=0.038;entryDx=0;entryDy=0;entryPerimeter=0;exitX=0.5;exitY=1;exitDx=0;exitDy=0;curved=1;" edge="1" parent="1" source="NNk8S8M2l-ehOu8BPUui-23" target="NNk8S8M2l-ehOu8BPUui-77">
          <mxGeometry width="50" height="50" relative="1" as="geometry">
            <mxPoint x="1610" y="660" as="sourcePoint" />
            <mxPoint x="1660" y="610" as="targetPoint" />
            <Array as="points">
              <mxPoint x="1620" y="640" />
            </Array>
          </mxGeometry>
        </mxCell>
        <mxCell id="NNk8S8M2l-ehOu8BPUui-82" value="" style="endArrow=classic;html=1;rounded=0;exitX=1;exitY=0.5;exitDx=0;exitDy=0;curved=1;" edge="1" parent="1" source="NNk8S8M2l-ehOu8BPUui-19" target="NNk8S8M2l-ehOu8BPUui-41">
          <mxGeometry width="50" height="50" relative="1" as="geometry">
            <mxPoint x="1090" y="400" as="sourcePoint" />
            <mxPoint x="1140" y="350" as="targetPoint" />
            <Array as="points">
              <mxPoint x="1130" y="400" />
            </Array>
          </mxGeometry>
        </mxCell>
        <mxCell id="NNk8S8M2l-ehOu8BPUui-84" value="Filling requires&amp;nbsp;&lt;div&gt;at least 82 mm of&amp;nbsp;&lt;div&gt;z-axis motion&lt;/div&gt;&lt;div&gt;Req: 3.2&lt;/div&gt;&lt;/div&gt;" style="ellipse;whiteSpace=wrap;html=1;fillColor=#FFCC99;" vertex="1" parent="1">
          <mxGeometry x="1840" y="610" width="120" height="80" as="geometry" />
        </mxCell>
        <mxCell id="NNk8S8M2l-ehOu8BPUui-85" value="" style="endArrow=classic;html=1;rounded=0;entryX=0.5;entryY=0;entryDx=0;entryDy=0;curved=1;exitX=1;exitY=1;exitDx=0;exitDy=0;" edge="1" parent="1" source="NNk8S8M2l-ehOu8BPUui-74" target="NNk8S8M2l-ehOu8BPUui-84">
          <mxGeometry width="50" height="50" relative="1" as="geometry">
            <mxPoint x="1860" y="550" as="sourcePoint" />
            <mxPoint x="1880" y="560" as="targetPoint" />
            <Array as="points">
              <mxPoint x="1920" y="570" />
            </Array>
          </mxGeometry>
        </mxCell>
        <mxCell id="NNk8S8M2l-ehOu8BPUui-88" value="" style="endArrow=classic;html=1;rounded=0;entryX=0.233;entryY=0.092;entryDx=0;entryDy=0;exitX=1;exitY=0.5;exitDx=0;exitDy=0;curved=1;entryPerimeter=0;" edge="1" parent="1" source="NNk8S8M2l-ehOu8BPUui-14" target="NNk8S8M2l-ehOu8BPUui-29">
          <mxGeometry width="50" height="50" relative="1" as="geometry">
            <mxPoint x="330" y="320" as="sourcePoint" />
            <mxPoint x="380" y="270" as="targetPoint" />
            <Array as="points">
              <mxPoint x="440" y="240" />
            </Array>
          </mxGeometry>
        </mxCell>
        <mxCell id="NNk8S8M2l-ehOu8BPUui-89" value="" style="endArrow=classic;html=1;rounded=0;entryX=0;entryY=0.5;entryDx=0;entryDy=0;exitX=1;exitY=0.5;exitDx=0;exitDy=0;curved=1;" edge="1" parent="1" source="NNk8S8M2l-ehOu8BPUui-41" target="NNk8S8M2l-ehOu8BPUui-22">
          <mxGeometry width="50" height="50" relative="1" as="geometry">
            <mxPoint x="1370" y="520" as="sourcePoint" />
            <mxPoint x="1420" y="470" as="targetPoint" />
            <Array as="points">
              <mxPoint x="1440" y="500" />
            </Array>
          </mxGeometry>
        </mxCell>
        <mxCell id="NNk8S8M2l-ehOu8BPUui-94" value="" style="endArrow=classic;html=1;rounded=0;entryX=0.283;entryY=0;entryDx=0;entryDy=0;entryPerimeter=0;exitX=1;exitY=0;exitDx=0;exitDy=0;curved=1;" edge="1" parent="1" source="NNk8S8M2l-ehOu8BPUui-29" target="NNk8S8M2l-ehOu8BPUui-19">
          <mxGeometry width="50" height="50" relative="1" as="geometry">
            <mxPoint x="760" y="280" as="sourcePoint" />
            <mxPoint x="810" y="230" as="targetPoint" />
            <Array as="points">
              <mxPoint x="800" y="270" />
            </Array>
          </mxGeometry>
        </mxCell>
        <mxCell id="NNk8S8M2l-ehOu8BPUui-95" value="In-Feed" style="whiteSpace=wrap;html=1;aspect=fixed;" vertex="1" parent="1">
          <mxGeometry x="50" y="160" width="80" height="80" as="geometry" />
        </mxCell>
        <mxCell id="NNk8S8M2l-ehOu8BPUui-96" value="" style="endArrow=classic;html=1;rounded=0;exitX=0.5;exitY=1;exitDx=0;exitDy=0;curved=1;" edge="1" parent="1" source="NNk8S8M2l-ehOu8BPUui-95" target="NNk8S8M2l-ehOu8BPUui-14">
          <mxGeometry width="50" height="50" relative="1" as="geometry">
            <mxPoint x="100" y="270" as="sourcePoint" />
            <mxPoint x="150" y="220" as="targetPoint" />
            <Array as="points">
              <mxPoint x="110" y="270" />
            </Array>
          </mxGeometry>
        </mxCell>
        <mxCell id="NNk8S8M2l-ehOu8BPUui-97" value="" style="endArrow=classic;html=1;rounded=0;exitX=1;exitY=1;exitDx=0;exitDy=0;curved=1;" edge="1" parent="1" source="NNk8S8M2l-ehOu8BPUui-29" target="NNk8S8M2l-ehOu8BPUui-30">
          <mxGeometry width="50" height="50" relative="1" as="geometry">
            <mxPoint x="650" y="440" as="sourcePoint" />
            <mxPoint x="700" y="390" as="targetPoint" />
            <Array as="points">
              <mxPoint x="790" y="500" />
            </Array>
          </mxGeometry>
        </mxCell>
        <mxCell id="NNk8S8M2l-ehOu8BPUui-102" value="Weighing requires 3 mm of z-axis motion&lt;br&gt;Req: 4.2" style="ellipse;whiteSpace=wrap;html=1;fillColor=#FFCCE6;" vertex="1" parent="1">
          <mxGeometry x="1400" y="780" width="120" height="80" as="geometry" />
        </mxCell>
        <mxCell id="NNk8S8M2l-ehOu8BPUui-103" value="" style="endArrow=classic;html=1;rounded=0;entryX=0.5;entryY=0;entryDx=0;entryDy=0;exitX=0.5;exitY=1;exitDx=0;exitDy=0;curved=1;" edge="1" parent="1" source="NNk8S8M2l-ehOu8BPUui-76" target="NNk8S8M2l-ehOu8BPUui-102">
          <mxGeometry width="50" height="50" relative="1" as="geometry">
            <mxPoint x="1450" y="750" as="sourcePoint" />
            <mxPoint x="1500" y="700" as="targetPoint" />
            <Array as="points">
              <mxPoint x="1480" y="750" />
            </Array>
          </mxGeometry>
        </mxCell>
        <mxCell id="NNk8S8M2l-ehOu8BPUui-104" value="Capping requires,&amp;nbsp;&lt;div&gt;z-axis motion&lt;div&gt;Req: 6.1&lt;/div&gt;&lt;/div&gt;" style="ellipse;whiteSpace=wrap;html=1;fillColor=#CCCCCC;" vertex="1" parent="1">
          <mxGeometry x="1710" y="250" width="120" height="80" as="geometry" />
        </mxCell>
        <mxCell id="NNk8S8M2l-ehOu8BPUui-105" value="Capping requires&amp;nbsp;&lt;div&gt;40 mm of z-axis motion&lt;div&gt;Req: 6.2&lt;/div&gt;&lt;/div&gt;" style="ellipse;whiteSpace=wrap;html=1;fillColor=#CCCCCC;" vertex="1" parent="1">
          <mxGeometry x="1900" y="277.5" width="120" height="80" as="geometry" />
        </mxCell>
        <mxCell id="NNk8S8M2l-ehOu8BPUui-107" value="" style="endArrow=classic;html=1;rounded=0;entryX=0.5;entryY=0;entryDx=0;entryDy=0;exitX=0.703;exitY=0.038;exitDx=0;exitDy=0;exitPerimeter=0;curved=1;" edge="1" parent="1" source="NNk8S8M2l-ehOu8BPUui-104" target="NNk8S8M2l-ehOu8BPUui-105">
          <mxGeometry width="50" height="50" relative="1" as="geometry">
            <mxPoint x="1810" y="250" as="sourcePoint" />
            <mxPoint x="1860" y="200" as="targetPoint" />
            <Array as="points">
              <mxPoint x="1880" y="240" />
            </Array>
          </mxGeometry>
        </mxCell>
        <mxCell id="NNk8S8M2l-ehOu8BPUui-108" value="" style="endArrow=classic;html=1;rounded=0;entryX=0;entryY=1;entryDx=0;entryDy=0;exitX=0.727;exitY=0.067;exitDx=0;exitDy=0;exitPerimeter=0;curved=1;" edge="1" parent="1" source="NNk8S8M2l-ehOu8BPUui-22" target="NNk8S8M2l-ehOu8BPUui-104">
          <mxGeometry width="50" height="50" relative="1" as="geometry">
            <mxPoint x="1670" y="380" as="sourcePoint" />
            <mxPoint x="1720" y="330" as="targetPoint" />
            <Array as="points">
              <mxPoint x="1710" y="350" />
            </Array>
          </mxGeometry>
        </mxCell>
        <mxCell id="NNk8S8M2l-ehOu8BPUui-109" value="Single&amp;nbsp;&lt;div&gt;Syringe&lt;/div&gt;" style="whiteSpace=wrap;html=1;aspect=fixed;" vertex="1" parent="1">
          <mxGeometry x="1960" y="430" width="80" height="80" as="geometry" />
        </mxCell>
        <mxCell id="NNk8S8M2l-ehOu8BPUui-110" value="" style="endArrow=classic;html=1;rounded=0;entryX=0.94;entryY=0.744;entryDx=0;entryDy=0;exitX=0.5;exitY=0;exitDx=0;exitDy=0;curved=1;entryPerimeter=0;" edge="1" parent="1" source="NNk8S8M2l-ehOu8BPUui-109" target="NNk8S8M2l-ehOu8BPUui-105">
          <mxGeometry width="50" height="50" relative="1" as="geometry">
            <mxPoint x="1990" y="420" as="sourcePoint" />
            <mxPoint x="2040" y="370" as="targetPoint" />
            <Array as="points">
              <mxPoint x="2050" y="380" />
            </Array>
          </mxGeometry>
        </mxCell>
        <mxCell id="NNk8S8M2l-ehOu8BPUui-111" value="" style="endArrow=classic;html=1;rounded=0;entryX=1;entryY=0;entryDx=0;entryDy=0;exitX=0.5;exitY=1;exitDx=0;exitDy=0;curved=1;" edge="1" parent="1" source="NNk8S8M2l-ehOu8BPUui-109" target="NNk8S8M2l-ehOu8BPUui-84">
          <mxGeometry width="50" height="50" relative="1" as="geometry">
            <mxPoint x="1990" y="570" as="sourcePoint" />
            <mxPoint x="2040" y="520" as="targetPoint" />
            <Array as="points">
              <mxPoint x="1990" y="570" />
            </Array>
          </mxGeometry>
        </mxCell>
      </root>
    </mxGraphModel>
  </diagram>
</mxfile>
